<svg xmlns="http://www.w3.org/2000/svg" xmlns:xlink="http://www.w3.org/1999/xlink" width="48" height="48" viewBox="0 0 48 48"><defs><clipPath id="a"><rect width="48" height="48" fill="none"/></clipPath></defs><g clip-path="url(#a)"><circle cx="24" cy="24" r="24" fill="#6b71e3"/><path d="M0,0H24V24H0Z" transform="translate(12 12)" fill="none"/><path d="M21,18v1a2.006,2.006,0,0,1-2,2H5a2,2,0,0,1-2-2V5A2,2,0,0,1,5,3H19a2.006,2.006,0,0,1,2,2V6H12a2,2,0,0,0-2,2v8a2,2,0,0,0,2,2Zm-9-2H22V8H12Zm4-2.5A1.5,1.5,0,1,1,17.5,12,1.5,1.5,0,0,1,16,13.5Z" transform="translate(12 12)" fill="#fff"/></g></svg>