<svg xmlns="http://www.w3.org/2000/svg" xmlns:xlink="http://www.w3.org/1999/xlink" width="48" height="48" viewBox="0 0 48 48"><defs><clipPath id="a"><rect width="48" height="48" fill="none"/></clipPath></defs><g clip-path="url(#a)"><circle cx="24" cy="24" r="24" fill="#ff4866"/><path d="M0,0H24V24H0Z" transform="translate(12 12)" fill="none"/><path d="M17,10H7v2H17Zm2-7H18V1H16V3H8V1H6V3H5A1.991,1.991,0,0,0,3.01,5L3,19a2,2,0,0,0,2,2H19a2.006,2.006,0,0,0,2-2V5A2.006,2.006,0,0,0,19,3Zm0,16H5V8H19Zm-5-5H7v2h7Z" transform="translate(12 12)" fill="#fff"/></g></svg>