<svg xmlns="http://www.w3.org/2000/svg" width="24" height="24" viewBox="0 0 24 24"><defs><style>.a{opacity:0.87;}.b{fill:none;}.c{fill:#4bbac5;}</style></defs><g class="a"><path class="b" d="M0,0H24V24H0Z"/><path class="c" d="M-2093,2050a10.012,10.012,0,0,1-10-10,10.012,10.012,0,0,1,10-10,10.011,10.011,0,0,1,10,10A10.011,10.011,0,0,1-2093,2050Zm-5.333-16a.668.668,0,0,0-.667.667A11.346,11.346,0,0,0-2087.667,2046a.667.667,0,0,0,.667-.666v-2.327a.667.667,0,0,0-.667-.666,7.574,7.574,0,0,1-2.38-.381.649.649,0,0,0-.209-.034.666.666,0,0,0-.47.195l-1.467,1.467a10.153,10.153,0,0,1-4.394-4.394l1.467-1.466a.673.673,0,0,0,.167-.68,7.569,7.569,0,0,1-.38-2.38A.668.668,0,0,0-2096,2034Z" transform="translate(2105 -2028)"/></g></svg>