<svg xmlns="http://www.w3.org/2000/svg" xmlns:xlink="http://www.w3.org/1999/xlink" width="24" height="24" viewBox="0 0 24 24"><defs><style>.a{fill:none;}.b{clip-path:url(#a);}.c{opacity:0.87;}.d{fill:#4bbac5;}</style><clipPath id="a"><rect class="a" width="24" height="24"/></clipPath></defs><g class="b"><g class="c"><path class="a" d="M0,0H24V24H0Z"/><path class="d" d="M-1941,2050a10.011,10.011,0,0,1-10-10,10.011,10.011,0,0,1,10-10,10.011,10.011,0,0,1,10,10A10.011,10.011,0,0,1-1941,2050Zm0-17a4.956,4.956,0,0,0-5,4.9c0,3.632,4.949,9.046,5,9.1.049-.053,5-5.439,5-9.1A4.956,4.956,0,0,0-1941,2033Zm0,6.65a1.77,1.77,0,0,1-1.786-1.75,1.77,1.77,0,0,1,1.786-1.75,1.77,1.77,0,0,1,1.786,1.75A1.771,1.771,0,0,1-1941,2039.65Z" transform="translate(1953 -2028)"/></g></g></svg>