<svg xmlns="http://www.w3.org/2000/svg" width="52.5" height="52.5" viewBox="0 0 52.5 52.5"><rect width="52.5" height="1.75" transform="translate(0 50.75)" fill="#263548"/><path d="M297.625,272v14H288v1.75h21V272Zm9.625,14h-7.875V273.75h7.875Z" transform="translate(-256.5 -242.25)" fill="#263548"/><rect width="1.75" height="1.75" transform="translate(44.625 33.25)" fill="#263548"/><rect width="1.75" height="1.75" transform="translate(47.25 33.25)" fill="#263548"/><rect width="1.75" height="1.75" transform="translate(44.625 36.75)" fill="#263548"/><rect width="1.75" height="1.75" transform="translate(47.25 36.75)" fill="#263548"/><rect width="1.75" height="1.75" transform="translate(44.625 40.25)" fill="#263548"/><rect width="1.75" height="1.75" transform="translate(47.25 40.25)" fill="#263548"/><path d="M376,272v10.281h0v.219h11.375V272Zm9.625,10.5H377.75v-8.75h7.875Z" transform="translate(-355.656 -257.234)" fill="#263548"/><path d="M376,362v4.156h0v1.75h11.375V362Zm9.625,4.156H377.75V363.75h7.875Z" transform="translate(-355.656 -351.391)" fill="#263548"/><rect width="1.75" height="1.75" transform="translate(23.844 18.266)" fill="#263548"/><rect width="1.75" height="1.75" transform="translate(26.469 18.266)" fill="#263548"/><rect width="1.75" height="1.75" transform="translate(23.844 21.766)" fill="#263548"/><rect width="1.75" height="1.75" transform="translate(26.469 21.766)" fill="#263548"/><rect width="1.75" height="1.75" transform="translate(3.5 41.125)" fill="#263548"/><rect width="1.75" height="1.75" transform="translate(3.5 37.625)" fill="#263548"/><path d="M21,330.5v-1.75H15.75V320H0v10.5H21ZM8.75,321.75H14v7H8.75Zm-1.75,7H1.75v-7H7Z" transform="translate(0 -285)" fill="#263548"/><rect width="1.75" height="1.75" transform="translate(10.5 41.125)" fill="#263548"/><rect width="1.75" height="1.75" transform="translate(10.5 37.625)" fill="#263548"/><rect width="1.75" height="1.75" transform="translate(0 47.25)" fill="#263548"/><rect width="3.5" height="1.75" transform="translate(33.25 47.25)" fill="#263548"/><rect width="3.5" height="1.75" transform="translate(42 47.25)" fill="#263548"/><rect width="3.5" height="1.75" transform="translate(24.5 47.25)" fill="#263548"/><rect width="3.5" height="1.75" transform="translate(7 47.25)" fill="#263548"/><rect width="3.5" height="1.75" transform="translate(15.75 47.25)" fill="#263548"/><rect width="1.75" height="1.75" transform="translate(50.75 47.25)" fill="#263548"/><path d="M147.375,62.75A11.375,11.375,0,1,0,136,51.375,11.375,11.375,0,0,0,147.375,62.75Zm0-21a9.625,9.625,0,1,1-9.625,9.625A9.625,9.625,0,0,1,147.375,41.75Z" transform="translate(-121.125 -35.625)" fill="#263548"/><path d="M96.017,16.037a16.88,16.88,0,0,0,2.426,9.31l10.836,18.67a2.687,2.687,0,0,0,4.779.05l11.025-19a16.857,16.857,0,0,0,2.41-9.158,1.405,1.405,0,0,0,.006-.161A15.732,15.732,0,0,0,112.582.04l-.22-.014c-.2-.011-.389-.026-.613-.026a2.354,2.354,0,0,0-.257.012c-.423.006-.846.024-1.268.065-.134.013-.268.032-.4.053l-.277.039c-.262.036-.529.072-.787.122-.309.06-.613.137-.949.225l-.14.034c-.1.025-.2.049-.291.076A15.815,15.815,0,0,0,96,15.75c0,.08.005.158.01.237Zm11.855-13.73c.071-.021.142-.038.213-.055l.2-.051c.262-.068.53-.138.808-.192.227-.045.455-.074.684-.1l.308-.045c.1-.016.2-.031.3-.041.375-.036.751-.051,1.122-.056.058,0,.114,0,.253-.011.159,0,.319.012.479.022l.243.016A13.982,13.982,0,0,1,125.75,15.75l-.01.2a15.08,15.08,0,0,1-2.15,8.2c-.032.052-.06.105-.062.11l-11.01,18.978a.914.914,0,0,1-.836.512.942.942,0,0,1-.863-.563L99.988,24.525c-.025-.049-.052-.1-.083-.153a15.071,15.071,0,0,1-2.138-8.326l-.017-.3A14.06,14.06,0,0,1,107.872,2.306Z" transform="translate(-85.5)" fill="#263548"/></svg>