<svg xmlns="http://www.w3.org/2000/svg" width="52.5" height="53.594" viewBox="0 0 52.5 53.594"><g transform="translate(0)"><path d="M13.684,284.155a4.625,4.625,0,0,0-1.991-.737A6.074,6.074,0,0,0,14,279c0-5.785-3.331-7-6.125-7s-6.125,1.215-6.125,7a6.074,6.074,0,0,0,2.307,4.418A4.623,4.623,0,0,0,0,288.012v6.737H1.75v-6.737a2.888,2.888,0,0,1,2.887-2.888H6.58L5.312,288.3a.875.875,0,0,0,.194.944l1.75,1.75a.875.875,0,0,0,1.237,0l1.75-1.75a.875.875,0,0,0,.194-.944l-1.271-3.175h1.945A2.888,2.888,0,0,1,14,288.012v6.737h1.75v-6.737A4.631,4.631,0,0,0,13.684,284.155Zm-10.139-6.08c.237-2.932,1.617-4.324,4.329-4.324a3.824,3.824,0,0,1,4.241,3.624L9.2,275.624a.875.875,0,0,0-1.28.473C7.478,277.426,5.088,277.928,3.545,278.074Zm4.329,11.064-.724-.724.724-1.809.724,1.809Zm0-5.763a5.513,5.513,0,0,1-4.253-3.546c1.5-.123,4.2-.577,5.46-2.235l3.128,1.877A5.418,5.418,0,0,1,7.875,283.375Z" transform="translate(0 -241.156)" fill="#263548"/><rect width="1.75" height="3.5" transform="translate(3.5 50.094)" fill="#263548"/><rect width="1.75" height="3.5" transform="translate(10.5 50.094)" fill="#263548"/><rect width="1.75" height="14.438" transform="translate(0.875 53.594) rotate(-90)" fill="#263548"/><rect width="1.75" height="14.438" transform="translate(37.406 53.594) rotate(-90)" fill="#263548"/><rect width="1.75" height="14.438" transform="translate(19.141 48.344) rotate(-90)" fill="#263548"/><path d="M181.684,236.155a4.625,4.625,0,0,0-1.992-.737A6.074,6.074,0,0,0,182,231c0-5.785-3.331-7-6.125-7s-6.125,1.215-6.125,7a6.074,6.074,0,0,0,2.307,4.418A4.623,4.623,0,0,0,168,240.012v6.737h1.75v-6.737a2.888,2.888,0,0,1,2.888-2.888h1.943l-1.27,3.175a.875.875,0,0,0,.194.944l1.75,1.75a.875.875,0,0,0,1.237,0l1.75-1.75a.875.875,0,0,0,.194-.944l-1.269-3.175h1.945A2.888,2.888,0,0,1,182,240.012v6.737h1.75v-6.737A4.631,4.631,0,0,0,181.684,236.155Zm-10.139-6.08c.237-2.932,1.617-4.324,4.329-4.324a3.824,3.824,0,0,1,4.241,3.624l-2.916-1.75a.875.875,0,0,0-1.28.473C175.478,229.426,173.088,229.928,171.545,230.074Zm4.329,11.064-.724-.724.724-1.809.724,1.809Zm0-5.763a5.513,5.513,0,0,1-4.253-3.546c1.5-.123,4.2-.577,5.46-2.235l3.128,1.877A5.418,5.418,0,0,1,175.875,235.375Z" transform="translate(-149.625 -198.406)" fill="#263548"/><rect width="1.75" height="3.5" transform="translate(21.875 44.844)" fill="#263548"/><rect width="1.75" height="3.5" transform="translate(28.875 44.844)" fill="#263548"/><path d="M349.684,284.155a4.625,4.625,0,0,0-1.992-.737A6.074,6.074,0,0,0,350,279c0-5.785-3.331-7-6.125-7s-6.125,1.215-6.125,7a6.074,6.074,0,0,0,2.307,4.418A4.623,4.623,0,0,0,336,288.012v6.737h1.75v-6.737a2.888,2.888,0,0,1,2.888-2.888h1.943l-1.27,3.175a.875.875,0,0,0,.194.944l1.75,1.75a.875.875,0,0,0,1.237,0l1.75-1.75a.875.875,0,0,0,.194-.944l-1.269-3.175h1.945A2.888,2.888,0,0,1,350,288.012v6.737h1.75v-6.737A4.632,4.632,0,0,0,349.684,284.155Zm-10.139-6.08c.237-2.932,1.617-4.324,4.329-4.324a3.824,3.824,0,0,1,4.241,3.624l-2.915-1.75a.875.875,0,0,0-1.28.473C343.478,277.426,341.088,277.928,339.545,278.074Zm4.329,11.064-.724-.724.724-1.809.724,1.809Zm0-5.763a5.513,5.513,0,0,1-4.253-3.546c1.5-.123,4.2-.577,5.46-2.235l3.128,1.877A5.418,5.418,0,0,1,343.875,283.375Z" transform="translate(-299.25 -241.156)" fill="#263548"/><rect width="1.75" height="3.5" transform="translate(40.25 50.094)" fill="#263548"/><rect width="1.75" height="3.5" transform="translate(47.25 50.094)" fill="#263548"/><path d="M170.388,7.875a2.614,2.614,0,0,0-4.375-1.942,2.584,2.584,0,0,0-3.5,0,2.543,2.543,0,0,0-2.625-.525V2.625a2.625,2.625,0,0,0-5.25,0V9.749a3.483,3.483,0,0,0,.592,6.847,7.954,7.954,0,0,0,7.283,4.4c4.342,0,7.875-3.14,7.875-7a6.233,6.233,0,0,0-.224-1.575,2.6,2.6,0,0,0,.224-1.05Zm-7,0a.875.875,0,0,1,1.75,0v3.5a.875.875,0,0,1-.875.875,2.609,2.609,0,0,0-.875-1.943Zm-3.5,0a.875.875,0,0,1,1.75,0v1.75h-1.75Zm-3.5-5.25a.875.875,0,0,1,1.75,0v7h-1.75Zm-1.466,12.14a1.746,1.746,0,0,1,.591-3.39h6.125a.853.853,0,0,1,.279.057.945.945,0,0,1,.118.051.867.867,0,0,1-.4,1.642h-3.661a.875.875,0,0,0-.824.582A1.746,1.746,0,0,1,154.922,14.765Zm7.591,4.485A6.308,6.308,0,0,1,157,16.279a3.512,3.512,0,0,0,1.532-1.4h3.105A2.609,2.609,0,0,0,163.58,14h.683a2.605,2.605,0,0,0,1.75-.683,2.538,2.538,0,0,0,2.612.525c0,.052.013.1.013.157C168.638,16.9,165.89,19.25,162.513,19.25Zm6.125-7.875a.875.875,0,0,1-1.75,0v-3.5a.875.875,0,0,1,1.75,0Z" transform="translate(-135.388 1.094)" fill="#263548"/><path d="M122.459,219.736l-1.739.2a13.234,13.234,0,0,0,.3,1.674l1.7-.42A11.448,11.448,0,0,1,122.459,219.736Z" transform="translate(-107.516 -194.608)" fill="#263548"/><path d="M144.563,269.416l-1.411,1.033a13.2,13.2,0,0,0,1.092,1.3l1.266-1.208A11.529,11.529,0,0,1,144.563,269.416Z" transform="translate(-127.495 -238.855)" fill="#263548"/><path d="M125.081,160.616a13.2,13.2,0,0,0-.569,1.6l1.684.476a11.316,11.316,0,0,1,.493-1.389Z" transform="translate(-110.893 -141.955)" fill="#263548"/><path d="M129.822,245.848l-1.63.636a12.993,12.993,0,0,0,.722,1.543l1.532-.845A11.3,11.3,0,0,1,129.822,245.848Z" transform="translate(-114.171 -217.865)" fill="#263548"/><path d="M120.138,190.5A13.38,13.38,0,0,0,120,192.2l1.75.029a11.458,11.458,0,0,1,.119-1.471Z" transform="translate(-106.875 -168.574)" fill="#263548"/><path d="M344.612,190.336l-1.732.256a11.478,11.478,0,0,1,.122,1.471l1.75-.031A13.263,13.263,0,0,0,344.612,190.336Z" transform="translate(-305.378 -168.424)" fill="#263548"/><path d="M341.265,219.6a11.174,11.174,0,0,1-.257,1.451l1.7.419a13.065,13.065,0,0,0,.3-1.677Z" transform="translate(-303.71 -194.487)" fill="#263548"/><path d="M316.3,269.32a11.586,11.586,0,0,1-.946,1.132l1.268,1.206a13.288,13.288,0,0,0,1.09-1.305Z" transform="translate(-280.86 -238.77)" fill="#263548"/><path d="M337.135,160.456l-1.607.695a11.287,11.287,0,0,1,.494,1.387l1.684-.478A13.062,13.062,0,0,0,337.135,160.456Z" transform="translate(-298.83 -141.813)" fill="#263548"/><path d="M331.871,245.736a11.3,11.3,0,0,1-.623,1.335l1.534.843a12.988,12.988,0,0,0,.72-1.543Z" transform="translate(-295.018 -217.765)" fill="#263548"/><path d="M1.75,0H0A7.008,7.008,0,0,0,7,7V5.25A5.256,5.256,0,0,1,1.75,0Z" transform="matrix(0.643, 0.766, -0.766, 0.643, 16.628, 0)" fill="#263548"/></g></svg>