<svg xmlns="http://www.w3.org/2000/svg" width="55.082" height="56" viewBox="0 0 55.082 56"><path d="M102.425,100.983v-4.59a7.353,7.353,0,0,0-7.344-7.344H87.737V86.341a8.283,8.283,0,0,0,4.377-5.554h2.967a2.757,2.757,0,0,0,2.754-2.754V74.361a2.757,2.757,0,0,0-2.754-2.754V69.77a11.016,11.016,0,0,0-22.033,0v1.836a2.757,2.757,0,0,0-2.754,2.754v3.672a2.757,2.757,0,0,0,2.754,2.754v3.672a.915.915,0,0,0,.269.649l1.836,1.836a.918.918,0,0,0,1.3-1.3l-1.567-1.567V80.787h1.131a8.281,8.281,0,0,0,4.377,5.554v2.708H73.048A7.353,7.353,0,0,0,65.7,96.393v4.721a3.668,3.668,0,0,0-2.754,3.542,3.441,3.441,0,0,0,3.672,3.672h35.8a3.672,3.672,0,1,0,0-7.344ZM94.163,74.361a.918.918,0,0,0,.918-.918.919.919,0,0,1,.918.918v3.672a.919.919,0,0,1-.918.918H92.327V73.9l1.6.427A.949.949,0,0,0,94.163,74.361ZM75.8,78.951H73.048a.919.919,0,0,1-.918-.918V74.361a.919.919,0,0,1,.918-.918.918.918,0,0,0,1.373.8l1.381-.789v5.5Zm-.918-7.09V69.77a9.18,9.18,0,0,1,18.361,0v2.477L80.629,68.883a.945.945,0,0,0-.237-.03.907.907,0,0,0-.455.121Zm2.754,7.09V72.4l2.883-1.647,9.97,2.659v5.538a6.426,6.426,0,0,1-12.852,0ZM85.9,87v2.049H82.229V87A8.022,8.022,0,0,0,85.9,87ZM71.212,106.492h-4.59a1.628,1.628,0,0,1-1.836-1.836,1.838,1.838,0,0,1,1.836-1.836h4.59Zm0-5.508H67.54V99.147h3.672Zm23.869-2.754v8.262H73.048v-10.1H95.081v1.836ZM96,94.557H72.13a.918.918,0,0,0-.918.918v1.836H67.54v-.918a5.514,5.514,0,0,1,5.508-5.508H95.081a5.514,5.514,0,0,1,5.508,5.508v.918H96.917V95.475A.918.918,0,0,0,96,94.557Zm4.59,4.59v1.836H96.917V99.148Zm1.836,7.344H96.917V102.82h5.508a1.836,1.836,0,1,1,0,3.672Z" transform="translate(-56.524 -52.328)" fill="#263548"/><path d="M214.951,193.049a.918.918,0,0,0-.918.918v.918a.918.918,0,1,0,1.836,0v-.918A.918.918,0,0,0,214.951,193.049Z" transform="translate(-191.082 -171.934)" fill="#263548"/><path d="M282.1,193.049a.918.918,0,0,0-.918.918v.918a.918.918,0,1,0,1.836,0v-.918A.918.918,0,0,0,282.1,193.049Z" transform="translate(-250.886 -171.934)" fill="#263548"/><path d="M241.213,204.093l.66-1.32a.918.918,0,0,0-1.642-.822l-.918,1.836a.917.917,0,0,0,.1.973l.917,1.185a.918.918,0,1,0,1.452-1.124Z" transform="translate(-213.51 -179.411)" fill="#263548"/><path d="M45.417,38.164a3.23,3.23,0,0,0-.094-.741l1.316-.759-.918-1.59-1.316.759a3.209,3.209,0,0,0-1.283-.733V33.574H41.287V35.1A3.188,3.188,0,0,0,40,35.833l-1.316-.759-.918,1.59,1.316.759a3.182,3.182,0,0,0-.095.741,3.228,3.228,0,0,0,.094.741l-1.315.759.918,1.59L40,40.5a3.209,3.209,0,0,0,1.283.733v1.526h1.836V41.228a3.194,3.194,0,0,0,1.283-.733l1.316.759.918-1.59L45.323,38.9A3.164,3.164,0,0,0,45.417,38.164Zm-3.213.918a.918.918,0,1,1,.918-.918A.918.918,0,0,1,42.2,39.082Z" transform="translate(-34.098 -29.902)" fill="#263548"/><path d="M419.147,83.934V85.2l-.918.459-.918-.459V83.934h-1.836v2.4l1.836.918v2.187h1.836V87.255l1.836-.918v-2.4Z" transform="translate(-370.491 -74.754)" fill="#263548"/><path d="M12.459,0a8.262,8.262,0,0,0-.33,16.518L16.476,20a.918.918,0,0,0,1.492-.717V15c.677-.9,2.754-3.882,2.754-6.741A8.272,8.272,0,0,0,12.459,0Zm3.879,14.108a.921.921,0,0,0-.207.58v2.68l-3.1-2.479a.917.917,0,0,0-.574-.2,6.426,6.426,0,1,1,6.426-6.426C18.886,10.947,16.364,14.077,16.338,14.108Z" transform="translate(-4.197)" fill="#263548"/><path d="M380.852,41.967a7.34,7.34,0,0,0-1.836,14.448v3.913a.918.918,0,0,0,1.647.558l4.112-5.374a7.339,7.339,0,0,0-3.923-13.545Zm2.825,12.066a.9.9,0,0,0-.256.229l-2.569,3.355V55.664a.918.918,0,0,0-.788-.909,5.5,5.5,0,1,1,6.3-5.444A5.469,5.469,0,0,1,383.677,54.033Z" transform="translate(-333.115 -37.377)" fill="#263548"/><path d="M234.033,428.066h-.918a2.3,2.3,0,1,0,0,4.59h.918a2.3,2.3,0,1,0,0-4.59Zm0,2.754h-.918a.459.459,0,0,1,0-.918h.918a.459.459,0,1,1,0,.918Z" transform="translate(-206.033 -381.246)" fill="#263548"/><path d="M236.239,256.762a.918.918,0,0,0-1.231-.41,3.2,3.2,0,0,1-2.85,0,.918.918,0,1,0-.82,1.642,5.038,5.038,0,0,0,4.49,0A.918.918,0,0,0,236.239,256.762Z" transform="translate(-206.042 -228.227)" fill="#263548"/></svg>