<svg xmlns="http://www.w3.org/2000/svg" width="54.133" height="56" viewBox="0 0 54.133 56"><path d="M217.066,144a3.733,3.733,0,1,0-3.734-3.733A3.733,3.733,0,0,0,217.066,144Zm0-5.6a1.867,1.867,0,1,1-1.867,1.867A1.867,1.867,0,0,1,217.066,138.4Zm0,0" transform="translate(-189.999 -121.602)" fill="#263548"/><path d="M89.066,230.4a3.733,3.733,0,1,0,3.733,3.734A3.734,3.734,0,0,0,89.066,230.4Zm0,5.6a1.867,1.867,0,1,1,1.867-1.867A1.867,1.867,0,0,1,89.066,236Zm0,0" transform="translate(-75.999 -205.198)" fill="#263548"/><path d="M217.066,348.8a3.733,3.733,0,1,0-3.734-3.734A3.734,3.734,0,0,0,217.066,348.8Zm0-5.6a1.867,1.867,0,1,1-1.867,1.867A1.867,1.867,0,0,1,217.066,343.2Zm0,0" transform="translate(-189.999 -303.999)" fill="#263548"/><path d="M89.785,349.919a3.732,3.732,0,1,0,2.393,1.561,3.733,3.733,0,0,0-2.393-1.561Zm.361,5.211a1.867,1.867,0,1,1,.489-2.595,1.867,1.867,0,0,1-.489,2.595h0Zm0,0" transform="translate(-76.027 -311.589)" fill="#263548"/><path d="M38.267,3.733h-14a3.733,3.733,0,1,0-7.467,0H2.8A2.8,2.8,0,0,0,0,6.533V55.067A.933.933,0,0,0,.933,56h39.2a.933.933,0,0,0,.934-.933V6.533a2.8,2.8,0,0,0-2.8-2.8ZM14,12.133H27.067A.933.933,0,0,0,28,11.2V9.333h7.467V50.4H5.6V9.333h7.467V11.2a.933.933,0,0,0,.933.934ZM20.533,1.867A1.867,1.867,0,0,1,22.4,3.733H18.667a1.867,1.867,0,0,1,1.867-1.867Zm5.6,3.733v4.667h-11.2V5.6ZM39.2,54.133H1.866V6.533A.933.933,0,0,1,2.8,5.6H13.067V7.467h-8.4a.933.933,0,0,0-.934.934V51.333a.933.933,0,0,0,.934.934H36.4a.933.933,0,0,0,.933-.934V8.4a.933.933,0,0,0-.933-.934H28V5.6H38.267a.933.933,0,0,1,.934.934Zm0,0" transform="translate(0)" fill="#263548"/><path d="M110.934,139.56H112.8v-1.867a2.8,2.8,0,0,1,2.8-2.8h1.48l-1.207,1.207,1.32,1.32,2.8-2.8a.933.933,0,0,0,0-1.32l-2.8-2.8-1.32,1.32,1.207,1.207H115.6a4.673,4.673,0,0,0-4.667,4.667Zm0,0" transform="translate(-98.801 -116.227)" fill="#263548"/><path d="M215.836,285.409l2.8,2.8a.933.933,0,0,0,1.32,0l2.8-2.8-1.32-1.32-2.14,2.141-2.14-2.141Zm0,0" transform="translate(-192.229 -253.017)" fill="#263548"/><path d="M238.934,221.859H240.8v1.867h-1.867Zm0,0" transform="translate(-212.801 -197.593)" fill="#263548"/><path d="M238.934,255.992H240.8v1.867h-1.867Zm0,0" transform="translate(-212.801 -227.993)" fill="#263548"/><path d="M110.934,315.727H112.8v1.867h-1.867Zm0,0" transform="translate(-98.801 -281.194)" fill="#263548"/><path d="M170.668,375.457h2.8v1.867h-2.8Zm0,0" transform="translate(-152.001 -334.392)" fill="#263548"/><path d="M400.935,136.4H400v-2.8a.933.933,0,0,0-.934-.933v-3.733a.933.933,0,0,0-.933-.934H394.4a.933.933,0,0,0-.934.934v3.733a.933.933,0,0,0-.933.933v26.133c0,.011.006.021.006.033a.956.956,0,0,0,.052.3l2.8,7.467a.933.933,0,0,0,1.749,0l2.8-7.467a.945.945,0,0,0,.053-.3c0-.012.006-.022.006-.033V138.267h.934a.933.933,0,0,1,.933.933v5.6a.933.933,0,0,0,1.867,0v-5.6A2.8,2.8,0,0,0,400.935,136.4Zm-6.533-1.867h3.733V136.4H394.4Zm.933-4.667H397.2v2.8h-1.867Zm2.8,28.934H394.4v-1.867h3.733Zm-1.867,5.742-1.453-3.875h2.906Zm1.867-9.475H394.4v-16.8h3.733Zm0,0" transform="translate(-349.602 -114)" fill="#263548"/></svg>