<svg xmlns="http://www.w3.org/2000/svg" width="52.5" height="49.438" viewBox="0 0 52.5 49.438"><path d="M30.879,256.384H28.254v-1.773A4.355,4.355,0,0,0,30,251.134v-3.547a5.862,5.862,0,0,0,2.838-1.553l1.281-1.281a.875.875,0,0,0-.133-1.347l-2.625-1.75a5.59,5.59,0,0,0-5.917-.189l-.746-.124a5.225,5.225,0,0,0-6.012,4.149,3.547,3.547,0,0,0,.065,1.718l2.53,4.216A4.348,4.348,0,0,0,23,254.612v1.773H20.379A4.38,4.38,0,0,0,16,260.759v5.25a.875.875,0,0,0,.875.875h17.5a.875.875,0,0,0,.875-.875v-5.25A4.38,4.38,0,0,0,30.879,256.384Zm-2.625-5.25a2.625,2.625,0,1,1-5.25,0v-2.959l2.558-1.279a5.891,5.891,0,0,0,2.691.842Zm-1.75,4.288v.962h-1.75v-.962A4.373,4.373,0,0,0,26.5,255.422Zm-4.766-8.575a.875.875,0,0,0-.215.157c-.013.014-.025.028-.036.043a.874.874,0,0,0-.138.2.722.722,0,0,0-.033.075.864.864,0,0,0-.061.308v.344l-.9-1.5a5.127,5.127,0,0,1,.055-.641,3.49,3.49,0,0,1,4.007-2.766l1.071.175a.875.875,0,0,0,.63-.135,3.85,3.85,0,0,1,4.279,0l1.737,1.158-.525.525a4.19,4.19,0,0,1-5.451.393.875.875,0,0,0-.916-.087ZM19.5,265.134h-1.75v-1.75H19.5Zm14,0h-1.75v-1.75H33.5Zm0-3.5H30.879a.875.875,0,0,0-.875.875v2.625h-8.75v-2.625a.875.875,0,0,0-.875-.875H17.754v-.875a2.625,2.625,0,0,1,2.625-2.625h10.5a2.625,2.625,0,0,1,2.625,2.625Z" transform="translate(-14.254 -217.446)" fill="#263548"/><path d="M302.879,241.507h-2.625v-1.773a4.355,4.355,0,0,0,1.75-3.477v-2.844l1.225.919a.875.875,0,0,0,1.4-.7v-2.625a7,7,0,0,0-14,0v2.625a.875.875,0,0,0,1.126.838l1.446-.437.052,2.224a4.355,4.355,0,0,0,1.75,3.477v1.773h-2.625A4.38,4.38,0,0,0,288,245.882v5.25a.875.875,0,0,0,.875.875h17.5a.875.875,0,0,0,.875-.875v-5.25A4.38,4.38,0,0,0,302.879,241.507Zm-10.5-9.051v-1.449a5.25,5.25,0,0,1,10.5,0v.875l-2.1-1.575a.654.654,0,0,0-.574-.15.835.835,0,0,0-.2.011l-3.307.992Zm2.561,1.059,5.139-1.545.175.129v4.159a2.625,2.625,0,0,1-5.25-.02Zm3.564,7.03v.963h-1.75v-.963A4.373,4.373,0,0,0,298.5,240.544Zm-7,9.713h-1.75v-1.75h1.75Zm14,0h-1.75v-1.75h1.75Zm0-3.5h-2.625a.875.875,0,0,0-.875.875v2.625h-8.75v-2.625a.875.875,0,0,0-.875-.875h-2.625v-.875a2.625,2.625,0,0,1,2.625-2.625h10.5a2.625,2.625,0,0,1,2.625,2.625Z" transform="translate(-256.504 -202.569)" fill="#263548"/><path d="M49.875,30.125h-14A2.625,2.625,0,0,0,33.25,32.75v.875h-7v-7A2.625,2.625,0,0,0,23.625,24h-21A2.625,2.625,0,0,0,0,26.625v10.5A2.625,2.625,0,0,0,2.625,39.75H4.55L7.2,42.935a.875.875,0,0,0,1.344,0L11.2,39.75h3.675v3.5A2.625,2.625,0,0,0,17.5,45.875h5.425L25.58,49.06a.875.875,0,0,0,1.344,0l2.651-3.185H35a2.625,2.625,0,0,0,2.625-2.625v-.875h4.55L44.83,45.56a.875.875,0,0,0,1.344,0l2.651-3.185h1.05A2.625,2.625,0,0,0,52.5,39.75v-7A2.625,2.625,0,0,0,49.875,30.125ZM10.791,38a.875.875,0,0,0-.672.315L7.875,41.008,5.631,38.315A.875.875,0,0,0,4.959,38H2.625a.875.875,0,0,1-.875-.875v-10.5a.875.875,0,0,1,.875-.875h21a.875.875,0,0,1,.875.875v10.5a.875.875,0,0,1-.875.875Zm25.084,5.25a.875.875,0,0,1-.875.875H29.166a.875.875,0,0,0-.672.315L26.25,47.133,24.006,44.44a.875.875,0,0,0-.672-.315H17.5a.875.875,0,0,1-.875-.875v-3.5h7a2.625,2.625,0,0,0,2.625-2.625v-1.75H35a.875.875,0,0,1,.875.875Zm14.875-3.5a.875.875,0,0,1-.875.875H48.416a.875.875,0,0,0-.672.315L45.5,43.633,43.256,40.94a.875.875,0,0,0-.672-.315H37.625V36.25A2.625,2.625,0,0,0,35,33.625V32.75a.875.875,0,0,1,.875-.875h14a.875.875,0,0,1,.875.875Z" transform="translate(0 -24)" fill="#263548"/><rect width="1.75" height="1.75" transform="translate(3.5 3.5)" fill="#263548"/><rect width="1.75" height="1.75" transform="translate(7 3.5)" fill="#263548"/><rect width="1.75" height="1.75" transform="translate(10.5 3.5)" fill="#263548"/><rect width="1.75" height="1.75" transform="translate(28 13.125)" fill="#263548"/><rect width="1.75" height="1.75" transform="translate(31.5 13.125)" fill="#263548"/><rect width="1.75" height="1.75" transform="translate(40.25 9.625)" fill="#263548"/><rect width="1.75" height="1.75" transform="translate(43.75 9.625)" fill="#263548"/><rect width="1.75" height="1.75" transform="translate(47.25 9.625)" fill="#263548"/></svg>